<?xml version="1.0" encoding="utf-8"?>
<!-- Generator: Adobe Illustrator 16.0.0, SVG Export Plug-In . SVG Version: 6.00 Build 0)  -->
<!DOCTYPE svg PUBLIC "-//W3C//DTD SVG 1.1//EN" "http://www.w3.org/Graphics/SVG/1.1/DTD/svg11.dtd">
<svg version="1.1" id="圖層_1" xmlns="http://www.w3.org/2000/svg" xmlns:xlink="http://www.w3.org/1999/xlink" x="0px" y="0px"
	 width="457.848px" height="216.1px" viewBox="0 0 457.848 216.1" enable-background="new 0 0 457.848 216.1" xml:space="preserve">
<path fill="#FFFFFF" d="M55.348,82.421c-7.24,0-13.867-2.611-19-6.939v114.304c0,14.533,8.506,26.313,19,26.313s19-11.781,19-26.313
	V75.481C69.214,79.809,62.587,82.421,55.348,82.421z"/>
<path fill="#FFFFFF" d="M163.515,175.266c-21.091-5.833-39.834-21.408-39.834-43.5c0-21.531,16.227-39.79,37.5-40.667
	c11.765-0.105,31.167,0.333,31.167,0.333V55.974c0,0-17.598-0.071-29.5,0.298v-0.006c-2.713,0-5.388,0.146-8.021,0.419
	c-0.334,0.03-0.649,0.063-0.927,0.096c-0.058,0.007-0.111,0.031-0.169,0.042c-37.561,4.449-66.051,36.063-66.051,74.943
	c0,41.974,34.026,76,76,76h294.167v-32.667L163.515,175.266z"/>
<path fill="#FFFFFF" d="M172.681,95.367c-20.158,0-36.5,16.342-36.5,36.5c0,20.159,16.342,36.5,36.5,36.5s36.5-16.341,36.5-36.5
	C209.181,111.709,192.839,95.367,172.681,95.367z M172.681,151.942c-11.087,0-20.075-8.988-20.075-20.075
	s8.988-20.075,20.075-20.075s20.075,8.988,20.075,20.075C192.756,142.955,183.768,151.942,172.681,151.942z"/>
<g>
	<path fill="#FFFFFF" d="M345.348,123.871c-8.352,0-19.692-7.935-19.692-7.935s-0.308,0.938-0.308,3.069v49.36h40v-49.36
		c0-2.132-0.308-3.069-0.308-3.069S353.699,123.871,345.348,123.871z"/>
	<circle fill="#FFFFFF" cx="345.348" cy="100.871" r="20"/>
</g>
<path fill="#FFFFFF" d="M440.349,148.259c-12.216,0.405-14.238,0.625-16.317,0.625c-14.687,0-26.593-10.661-26.593-23.813
	c0-13.152,11.906-23.813,26.593-23.813c2.079,0,4.103,0.222,16.317,0.625V82.125c-12.255-0.222-14.271-0.349-16.317-0.349
	c-26.701,0-48.35,19.384-48.35,43.296c0,23.911,21.647,43.295,48.35,43.295c2.048,0,4.063-0.127,16.317-0.349V148.259z"/>
<path fill="#FFFFFF" d="M106.831,14.46c-24.723-34.801-51.483,4.149-51.483,4.149S28.587-20.341,3.865,14.46
	c-21.162,29.789,51.482,80.149,51.482,80.149S127.992,44.249,106.831,14.46z M55.348,78.053c0,0-47.219-32.734-33.464-52.099
	c16.069-22.62,33.464,2.697,33.464,2.697s17.396-25.317,33.464-2.697C102.567,45.318,55.348,78.053,55.348,78.053z"/>
<path fill="#FFFFFF" d="M218.348,100.871v67.496h18v-67.496H218.348z M221.348,105.049h12v12h-12V105.049z M234.285,163.599H220.91
	v-1.656h13.375V163.599z M234.285,161.224H220.91v-1.656h13.375V161.224z M234.285,158.849H220.91v-1.656h13.375V158.849z"/>
<path fill="#FFFFFF" d="M234.791,102.731l13.936,66.042l17.612-3.717l-13.937-66.042L234.791,102.731z M238.589,106.2l11.741-2.478
	l2.478,11.741l-11.741,2.479L238.589,106.2z M263.337,160.817l-13.087,2.762l-0.342-1.621l13.087-2.761L263.337,160.817z
	 M262.846,158.493l-13.087,2.762l-0.342-1.621l13.087-2.762L262.846,158.493z M262.355,156.169l-13.086,2.763l-0.342-1.621
	l13.086-2.763L262.355,156.169z"/>
<path fill="#FFFFFF" d="M270.883,100.179l-6.294,67.201l17.922,1.68l6.294-67.203L270.883,100.179z M273.48,104.619l11.948,1.119
	l-1.119,11.948l-11.947-1.12L273.48,104.619z M280.902,164.119l-13.315-1.247l0.153-1.648l13.317,1.248L280.902,164.119z
	 M281.124,161.754l-13.317-1.247l0.153-1.647l13.317,1.246L281.124,161.754z M281.344,159.391l-13.316-1.248l0.154-1.648
	l13.316,1.247L281.344,159.391z"/>
<path fill="#FFFFFF" d="M286.805,103.463l13.964,66.037l17.61-3.724l-13.964-66.037L286.805,103.463z M290.604,106.931l11.74-2.483
	l2.482,11.741l-11.74,2.481L290.604,106.931z M315.375,161.537l-13.085,2.769l-0.344-1.621l13.087-2.768L315.375,161.537z
	 M314.883,159.213l-13.086,2.768l-0.343-1.62l13.086-2.769L314.883,159.213z M314.392,156.89l-13.085,2.767l-0.343-1.62
	l13.085-2.767L314.392,156.89z"/>
</svg>
